<svg viewBox="0 0 320 320" xmlns="http://www.w3.org/2000/svg">
  <defs></defs>
  <path id="D-Pad_H" data-name="D-Pad H" class="cls-1" d="M 306.429 159.997 L 286.056 236.028 C 284.626 241.362 279.143 244.528 273.809 243.099 L 14.709 173.673 C 9.374 172.243 6.209 166.76 7.638 161.426 L 28.011 85.395 C 29.44 80.06 34.923 76.895 40.258 78.324 L 299.358 147.75 C 304.692 149.179 307.858 154.662 306.429 159.997 Z"></path>
  <path id="D-Pad_V" data-name="D-Pad V" class="cls-1" d="M 156.322 11.315 L 232.353 31.687 C 237.69 33.114 240.858 38.599 239.429 43.935 L 170.003 303.035 C 168.573 308.369 163.09 311.535 157.756 310.106 L 81.725 289.733 C 76.39 288.303 73.225 282.82 74.654 277.486 L 144.08 18.386 C 145.509 13.054 150.989 9.889 156.322 11.315 Z"></path>
</svg>