<svg viewBox="0 0 125 125" xmlns="http://www.w3.org/2000/svg">
  <defs></defs>
  <path id="N" class="cls-1" d="M 7.266 32.333 C 6.942 38.057 6.463 46.655 5.829 58.127 C 5.195 69.599 4.644 79.622 4.178 88.195 C 3.711 96.767 3.206 106.362 2.663 116.981 L 34.983 118.263 C 34.983 109.38 34.924 98.839 34.808 86.641 C 34.691 74.443 34.633 65.728 34.634 60.497 C 40.874 65.289 47.537 70.422 54.621 75.897 C 61.705 81.372 69.17 87.095 77.016 93.067 C 84.863 99.037 90.975 103.621 95.352 106.819 C 99.728 110.017 105.905 114.465 113.882 120.163 L 115.474 119.542 C 115.759 114.491 116.206 106.01 116.815 94.097 C 117.423 82.184 118.025 70.627 118.621 59.426 C 119.216 48.226 119.74 38.909 120.194 31.475 C 120.647 24.041 121.249 14.834 122.001 3.855 L 89.719 3.202 C 89.719 10.635 89.602 16.372 89.369 20.411 C 89.809 37.633 90.029 51.255 90.03 61.278 C 81.716 55.14 74.594 49.85 68.664 45.409 C 62.734 40.968 57.036 36.688 51.571 32.57 C 46.104 28.452 39.526 23.512 31.837 17.75 C 24.147 11.988 17.025 6.724 10.471 1.958 L 8.878 2.891 C 8.127 16.796 7.59 26.61 7.266 32.333 Z"></path>
</svg>