<svg viewBox="0 0 450 125" xmlns="http://www.w3.org/2000/svg">
  <defs></defs>
  <path id="Stop" class="cls-1" d="M 8.239 33.33 C 6.419 36.731 5.408 40.506 5.287 44.362 C 5.676 53.453 11.296 61.353 22.147 68.062 C 24.245 69.435 27.256 71.269 31.179 73.562 C 34.176 75.239 37.05 77.128 39.779 79.214 C 41.592 80.69 42.498 82.127 42.498 83.526 C 42.42 87.126 39.099 89.904 32.534 91.859 C 25.275 93.909 17.758 94.896 10.216 94.792 L 14.645 121.868 C 23.19 121.155 31.635 119.534 39.837 117.032 C 47.002 114.888 53.863 111.833 60.251 107.942 C 65.628 104.697 70.395 100.534 74.333 95.642 C 77.687 91.54 79.928 86.644 80.84 81.424 C 80.84 80.906 80.892 80.116 80.995 79.054 C 81.098 77.992 81.15 77.189 81.15 76.645 C 81.15 67.426 75.219 59.579 63.358 53.104 C 61.933 52.304 59.13 50.834 54.948 48.695 C 51.92 47.236 49.005 45.555 46.227 43.664 C 44.596 42.447 43.78 41.139 43.78 39.741 C 43.78 36.97 45.237 34.891 48.15 33.506 C 51.178 32.089 54.424 31.196 57.75 30.864 C 61.233 30.489 66.548 30.107 73.697 29.718 L 69.229 2.991 C 55.632 4.287 44.341 6.987 35.355 11.091 C 26.369 15.195 19.467 19.656 14.648 24.473 C 12.081 27.089 9.921 30.074 8.239 33.33 Z M 86.439 34.184 C 93.043 33.9 104.762 33.576 121.595 33.213 C 121.595 53.258 121.492 67.852 121.285 76.994 L 121.285 118.988 L 157.874 118.988 C 157.874 108.321 157.855 99.626 157.816 92.902 C 157.777 86.178 157.739 80.726 157.7 76.547 C 157.661 72.365 157.594 65.916 157.5 57.201 C 157.406 48.486 157.325 40.488 157.256 33.209 C 163.885 33.339 170.224 33.506 176.271 33.709 C 182.318 33.912 187.699 34.068 192.412 34.175 L 192.412 6.475 C 187.232 6.682 182.674 6.843 178.738 6.96 C 174.802 7.077 171.196 7.174 167.919 7.251 C 164.643 7.329 160.849 7.413 156.537 7.504 L 144.514 7.756 C 118.487 7.351 99.129 6.928 86.438 6.487 L 86.438 34.187 Z M 265.446 28.284 C 272.956 28.284 278.912 31.12 283.315 36.791 C 287.718 42.462 289.918 50.829 289.915 61.891 C 289.835 67.336 288.994 72.743 287.415 77.955 C 285.911 82.856 283.129 87.267 279.354 90.735 C 275.521 94.297 270.355 96.35 263.854 96.893 C 263.091 96.88 262.331 96.984 261.601 97.203 C 254.505 97.048 248.652 93.953 244.042 87.919 C 239.432 81.885 237.127 73.209 237.127 61.891 C 237.31 55.989 238.635 50.178 241.027 44.779 C 243.076 40.122 246.303 36.078 250.39 33.047 C 254.322 30.192 258.997 28.539 263.85 28.289 L 265.443 28.289 Z M 234.388 10.239 C 224.788 14.721 216.476 21.556 210.224 30.109 C 203.633 38.94 199.651 49.532 198.278 61.885 C 198.305 63.845 198.202 65.805 197.968 67.751 C 198.029 74.856 199.619 81.865 202.629 88.301 C 205.737 94.931 210.219 100.824 215.779 105.588 C 221.898 110.805 228.969 114.789 236.601 117.32 C 245.384 120.245 254.595 121.676 263.852 121.555 C 273.346 121.327 282.722 119.393 291.531 115.844 C 299.142 112.755 306.057 108.171 311.867 102.364 C 317.223 96.972 321.484 90.594 324.415 83.582 C 327.281 76.694 328.86 69.339 329.076 61.882 C 329.131 55.41 328.341 48.959 326.726 42.692 C 325.274 37.072 322.905 31.73 319.714 26.881 C 316.572 22.185 312.612 18.093 308.021 14.8 C 302.995 11.243 297.417 8.54 291.511 6.8 C 284.674 4.677 275.455 3.616 263.852 3.615 C 253.663 3.628 243.602 5.889 234.387 10.235 Z M 387.153 90.979 C 393.541 90.178 399.805 88.586 405.8 86.24 C 412.55 83.677 418.925 80.221 424.757 75.964 C 430.622 71.754 435.577 66.402 439.324 60.231 C 443.061 54.055 444.998 46.958 444.918 39.74 C 444.843 32.885 442.115 26.326 437.307 21.44 C 433.038 17.265 427.852 14.146 422.163 12.33 C 415.443 10.032 408.489 8.489 401.428 7.73 C 393.946 6.875 385.157 6.363 375.062 6.195 C 364.967 6.027 357.291 5.917 352.035 5.865 C 352.035 12.003 352.061 17.655 352.113 22.822 C 352.165 27.989 352.249 34.275 352.365 41.682 C 352.481 49.089 352.565 55.971 352.617 62.329 C 352.669 68.687 352.695 75.052 352.695 81.423 C 352.695 88.907 352.475 101.429 352.035 118.988 L 387.502 118.988 Z M 402.8 33.427 C 406.897 36.341 408.945 40.724 408.946 46.577 C 409.007 50.811 407.517 54.922 404.758 58.134 C 402.159 61.281 398.946 63.865 395.315 65.728 C 391.813 67.49 389.209 68.371 387.502 68.37 L 387.153 28.28 C 393.487 28.798 398.703 30.514 402.8 33.427 Z"></path>
</svg>