<svg viewBox="0 0 450 125" xmlns="http://www.w3.org/2000/svg">
  <defs></defs>
  <path id="Swop" class="cls-1" d="M 8.248 37.337 C 6.655 40.314 5.77 43.62 5.664 46.994 C 6.004 54.953 10.923 61.869 20.422 67.741 C 22.259 68.944 24.895 70.548 28.329 72.556 C 30.954 74.023 33.472 75.675 35.862 77.499 C 37.448 78.791 38.241 80.05 38.242 81.274 C 38.174 84.425 35.267 86.857 29.519 88.568 C 23.165 90.363 16.585 91.228 9.982 91.136 L 13.859 114.838 C 21.34 114.214 28.732 112.795 35.912 110.605 C 42.185 108.728 48.191 106.053 53.783 102.647 C 58.49 99.808 62.663 96.162 66.11 91.88 C 69.046 88.289 71.008 84.003 71.806 79.434 C 71.806 78.98 71.852 78.289 71.943 77.359 C 72.034 76.429 72.079 75.726 72.078 75.25 C 72.078 67.181 66.886 60.312 56.503 54.643 C 55.256 53.942 52.801 52.656 49.141 50.783 C 46.491 49.507 43.939 48.034 41.507 46.379 C 40.078 45.313 39.364 44.168 39.364 42.945 C 39.364 40.519 40.639 38.7 43.189 37.487 C 45.84 36.246 48.682 35.464 51.593 35.174 C 54.642 34.846 59.296 34.512 65.552 34.171 L 61.642 10.774 C 49.737 11.909 39.852 14.272 31.988 17.865 C 24.124 21.457 18.082 25.362 13.863 29.58 C 11.614 31.871 9.721 34.486 8.248 37.337 Z M 125.468 68.011 C 123.451 61.957 121.563 56.137 119.806 50.548 C 118.05 44.961 116.099 38.669 113.957 31.675 C 111.815 24.681 109.746 18.09 107.751 11.9 L 78.097 22.748 C 81.249 30.752 84.252 38.188 87.109 45.056 C 89.965 51.924 93.117 59.365 96.563 67.379 C 100.006 75.394 103.888 84.451 108.21 94.55 C 112.532 104.65 116.006 112.944 118.633 119.43 L 120.027 119.43 C 122.249 116.007 124.748 112.278 127.526 108.242 C 130.303 104.207 132.814 100.62 135.058 97.479 C 137.303 94.34 140.029 90.497 143.236 85.951 C 146.444 81.406 149.385 77.149 152.061 73.182 L 182.837 116.098 L 184.368 116.098 C 188.336 108.435 191.997 101.111 195.352 94.125 C 198.706 87.141 201.683 80.849 204.281 75.252 C 206.877 69.653 210.703 61.366 215.758 50.391 C 220.814 39.416 224.793 30.858 227.696 24.716 L 199.435 13.29 L 181.718 65.524 L 181.445 65.524 L 153.458 24.41 L 152.064 24.41 C 140.252 43.431 131.388 57.963 125.471 68.005 L 125.471 68.005 Z M 289.692 32.916 C 296.266 32.916 301.481 35.399 305.335 40.363 C 309.19 45.328 311.116 52.652 311.113 62.336 C 311.039 67.103 310.301 71.836 308.916 76.398 C 307.603 80.689 305.166 84.551 301.86 87.585 C 298.507 90.703 293.984 92.501 288.292 92.976 C 287.625 92.965 286.961 93.057 286.322 93.247 C 280.107 93.112 274.983 90.402 270.95 85.12 C 266.917 79.838 264.901 72.243 264.901 62.336 C 265.061 57.169 266.221 52.082 268.315 47.356 C 270.108 43.279 272.932 39.739 276.509 37.086 C 279.951 34.587 284.044 33.14 288.292 32.921 L 289.692 32.921 Z M 262.502 17.12 C 254.1 21.043 246.824 27.027 241.353 34.515 C 235.575 42.246 232.089 51.518 230.892 62.331 C 230.917 64.047 230.826 65.763 230.621 67.466 C 230.676 73.686 232.067 79.821 234.7 85.455 C 237.42 91.26 241.343 96.419 246.211 100.588 C 251.569 105.154 257.757 108.641 264.437 110.859 C 272.126 113.418 280.189 114.672 288.292 114.566 C 296.603 114.366 304.811 112.673 312.522 109.566 C 319.187 106.863 325.242 102.85 330.328 97.766 C 335.016 93.045 338.746 87.462 341.314 81.325 C 343.818 75.294 345.2 68.856 345.393 62.329 C 345.439 56.664 344.747 51.017 343.336 45.53 C 342.062 40.612 339.989 35.935 337.2 31.689 C 334.447 27.578 330.978 23.996 326.958 21.113 C 322.558 18 317.675 15.634 312.505 14.11 C 306.527 12.25 298.454 11.319 288.288 11.319 C 279.37 11.333 270.564 13.314 262.499 17.12 Z M 396.227 87.802 C 401.82 87.103 407.305 85.709 412.554 83.654 C 418.463 81.412 424.046 78.387 429.151 74.658 C 434.285 70.972 438.624 66.288 441.905 60.886 C 445.176 55.479 446.871 49.267 446.799 42.948 C 446.732 36.948 444.345 31.207 440.137 26.928 C 436.399 23.272 431.858 20.541 426.875 18.954 C 420.994 16.942 414.907 15.591 408.728 14.927 C 402.18 14.178 394.485 13.73 385.644 13.583 C 376.811 13.436 370.094 13.34 365.492 13.294 C 365.492 18.667 365.513 23.616 365.554 28.138 C 365.606 32.661 365.682 38.164 365.781 44.648 C 365.88 51.133 365.954 57.158 366 62.722 C 366.044 68.288 366.068 73.86 366.07 79.437 C 366.07 85.989 365.878 96.95 365.492 112.321 L 396.534 112.321 Z M 409.927 37.422 C 413.516 39.973 415.311 43.81 415.311 48.933 C 415.363 52.641 414.058 56.238 411.643 59.05 C 409.369 61.805 406.557 64.067 403.379 65.698 C 400.307 67.24 398.031 68.011 396.534 68.011 L 396.227 32.916 C 401.775 33.37 406.341 34.872 409.924 37.422 Z"></path>
</svg>